<?xml version="1.0" encoding="UTF-8"?>
<!DOCTYPE svg PUBLIC "-//W3C//DTD SVG 1.1//EN" "http://www.w3.org/Graphics/SVG/1.1/DTD/svg11.dtd">
<svg xmlns="http://www.w3.org/2000/svg" version="1.1" width="300px" height="60px" style="shape-rendering:geometricPrecision; text-rendering:geometricPrecision; image-rendering:optimizeQuality; fill-rule:evenodd; clip-rule:evenodd" xmlns:xlink="http://www.w3.org/1999/xlink">
<g><path style="opacity:1" fill="#fbfdfd" d="M -0.5,-0.5 C 74.8333,-0.5 150.167,-0.5 225.5,-0.5C 222.853,12.9949 216.853,24.8282 207.5,35C 203.755,34.9646 203.088,35.9646 205.5,38C 202.493,40.1655 200.493,42.9989 199.5,46.5C 199.527,48.7044 200.527,49.5378 202.5,49C 205.407,45.8492 208.074,42.5159 210.5,39C 213.618,38.1275 216.618,36.9608 219.5,35.5C 220.978,41.1015 222.145,46.7682 223,52.5C 223.589,54.8633 225.089,55.8633 227.5,55.5C 228.725,54.8478 229.392,53.6811 229.5,52C 229.486,50.6153 229.152,49.4486 228.5,48.5C 228.261,42.4348 228.761,36.4348 230,30.5C 232.296,28.9431 234.462,27.2764 236.5,25.5C 234.599,24.7691 232.599,24.7691 230.5,25.5C 232.322,17.9376 233.155,10.271 233,2.5C 231.591,1.21886 230.091,0.218865 228.5,-0.5C 252.167,-0.5 275.833,-0.5 299.5,-0.5C 299.5,19.5 299.5,39.5 299.5,59.5C 199.5,59.5 99.5,59.5 -0.5,59.5C -0.5,39.5 -0.5,19.5 -0.5,-0.5 Z"/></g>
<g><path style="opacity:1" fill="#136da3" d="M 225.5,-0.5 C 226.5,-0.5 227.5,-0.5 228.5,-0.5C 230.091,0.218865 231.591,1.21886 233,2.5C 233.155,10.271 232.322,17.9376 230.5,25.5C 232.599,24.7691 234.599,24.7691 236.5,25.5C 234.462,27.2764 232.296,28.9431 230,30.5C 228.761,36.4348 228.261,42.4348 228.5,48.5C 228.702,50.9496 228.369,53.283 227.5,55.5C 225.089,55.8633 223.589,54.8633 223,52.5C 222.145,46.7682 220.978,41.1015 219.5,35.5C 216.618,36.9608 213.618,38.1275 210.5,39C 208.074,42.5159 205.407,45.8492 202.5,49C 200.527,49.5378 199.527,48.7044 199.5,46.5C 200.493,42.9989 202.493,40.1655 205.5,38C 203.088,35.9646 203.755,34.9646 207.5,35C 216.853,24.8282 222.853,12.9949 225.5,-0.5 Z"/></g>
<g><path style="opacity:1" fill="#176ea4" d="M 199.5,18.5 C 199.5,18.8333 199.5,19.1667 199.5,19.5C 198.624,19.3691 197.957,19.7025 197.5,20.5C 198.667,20.8333 199.833,21.1667 201,21.5C 202.681,21.3917 203.848,20.7251 204.5,19.5C 205.167,19.5 205.833,19.5 206.5,19.5C 206.528,21.5824 205.861,23.4157 204.5,25C 200.549,25.5362 197.049,27.0362 194,29.5C 191.898,38.0769 189.731,46.5769 187.5,55C 184.851,55.4523 182.351,56.2857 180,57.5C 179.333,54.1667 179.333,50.8333 180,47.5C 181.107,41.7989 182.273,36.1322 183.5,30.5C 180.735,30.7976 178.235,31.7976 176,33.5C 174.459,38.8722 172.792,44.2055 171,49.5C 169.301,50.4061 167.467,50.7394 165.5,50.5C 165.786,45.8534 166.786,41.3534 168.5,37C 165.877,33.1514 165.877,29.318 168.5,25.5C 169.333,26.5 170.167,27.5 171,28.5C 173.221,22.4433 176.221,15.7766 180,8.5C 181.011,7.66337 182.178,7.33003 183.5,7.5C 182.155,12.1819 180.822,16.8486 179.5,21.5C 182.199,21.5339 184.699,20.8672 187,19.5C 189.321,13.5221 191.821,7.68872 194.5,2C 198.376,0.795491 201.376,1.79549 203.5,5C 201.557,8.88533 199.891,12.8853 198.5,17C 198.57,17.7648 198.903,18.2648 199.5,18.5 Z"/></g>
<g><path style="opacity:1" fill="#176ea4" d="M 40.5,34.5 C 39.448,34.3505 38.448,34.5172 37.5,35C 41.3499,37.0905 45.3499,38.9239 49.5,40.5C 50.1067,40.3764 50.44,40.0431 50.5,39.5C 54.8527,40.5799 55.8527,42.7466 53.5,46C 51.1667,46.6667 48.8333,46.6667 46.5,46C 42.9054,44.2866 39.4054,42.4533 36,40.5C 35.228,40.6448 34.5613,40.9781 34,41.5C 32.6667,44.8333 31.3333,48.1667 30,51.5C 28.6439,52.3802 27.1439,52.7135 25.5,52.5C 26.7729,45.2296 27.6063,37.8962 28,30.5C 32.293,21.8161 36.1263,12.8161 39.5,3.5C 43.6758,1.74992 47.0092,2.74992 49.5,6.5C 45.94,12.5508 43.94,18.8841 43.5,25.5C 50.8333,21.1667 58.1667,16.8333 65.5,12.5C 65.8333,12.8333 66.1667,13.1667 66.5,13.5C 60.3877,21.2395 52.721,27.0728 43.5,31C 42.2899,32.0391 41.2899,33.2058 40.5,34.5 Z"/></g>
<g><path style="opacity:1" fill="#166ea4" d="M 82.5,3.5 C 88.4676,2.29726 92.3009,4.63059 94,10.5C 94.5648,22.7849 92.2315,34.4516 87,45.5C 77.3095,56.9938 69.3095,55.9938 63,42.5C 62.3333,38.8333 62.3333,35.1667 63,31.5C 65.221,24.1718 68.221,17.1718 72,10.5C 75.6043,8.25369 79.1043,5.92036 82.5,3.5 Z"/></g>
<g><path style="opacity:1" fill="#176ea4" d="M 152.5,5.5 C 157.887,5.40535 163.22,5.90535 168.5,7C 169.851,12.7474 167.851,16.914 162.5,19.5C 156.48,18.2085 150.48,18.2085 144.5,19.5C 143.386,20.723 143.219,22.0563 144,23.5C 148.853,27.2632 153.52,31.2632 158,35.5C 160.383,40.5848 159.55,45.0848 155.5,49C 152.212,50.5817 148.879,51.915 145.5,53C 134.216,54.0537 131.716,49.887 138,40.5C 139.323,37.9414 141.157,37.2747 143.5,38.5C 141.377,40.7454 140.377,43.4121 140.5,46.5C 145.182,46.662 149.515,45.4954 153.5,43C 155.077,39.5185 154.077,36.8518 150.5,35C 130.253,24.0113 130.92,14.178 152.5,5.5 Z"/></g>
<g><path style="opacity:1" fill="#176ea4" d="M 252.5,6.5 C 253.833,6.5 255.167,6.5 256.5,6.5C 254.863,18.5494 252.196,30.3827 248.5,42C 248.585,43.1074 248.919,44.1074 249.5,45C 253.871,45.1725 258.204,45.6725 262.5,46.5C 260.028,47.8962 257.362,48.7296 254.5,49C 248.682,52.0046 243.016,55.1713 237.5,58.5C 235.112,58.2881 234.112,56.9548 234.5,54.5C 239.483,40.7146 243.983,26.7146 248,12.5C 248.979,10.0324 250.479,8.03244 252.5,6.5 Z"/></g>
<g><path style="opacity:1" fill="#126da3" d="M 132.5,9.5 C 134.288,9.21478 135.955,9.54811 137.5,10.5C 133.124,19.1232 129.624,28.1232 127,37.5C 126.722,41.1939 126.722,44.8606 127,48.5C 124.096,50.2268 120.93,50.8935 117.5,50.5C 117.813,47.7531 117.48,45.0865 116.5,42.5C 111.588,47.7939 105.588,49.9605 98.5,49C 98,48.5 97.5,48 97,47.5C 96.5904,35.3886 99.0904,23.8886 104.5,13C 108.204,12.1958 111.704,12.6958 115,14.5C 115.667,16.1667 115.667,17.8333 115,19.5C 111.386,27.6291 109.219,35.9624 108.5,44.5C 113.112,41.3916 117.278,37.725 121,33.5C 124.365,25.2202 128.198,17.2202 132.5,9.5 Z"/></g>
<g><path style="opacity:1" fill="#f7fafc" d="M 85.5,12.5 C 88.2856,12.9564 89.619,14.6231 89.5,17.5C 88.6961,28.4296 84.6961,37.9296 77.5,46C 75.6547,47.128 73.6547,47.628 71.5,47.5C 70.0431,41.5988 69.3764,35.5988 69.5,29.5C 71.7925,29.7564 73.9592,29.4231 76,28.5C 77.9357,22.2728 81.1024,16.9395 85.5,12.5 Z"/></g>
<g><path style="opacity:1" fill="#a6c8dc" d="M 206.5,19.5 C 205.833,19.5 205.167,19.5 204.5,19.5C 203.065,18.9035 201.398,18.9035 199.5,19.5C 199.5,19.1667 199.5,18.8333 199.5,18.5C 200.817,18.179 202.151,17.8457 203.5,17.5C 205.038,17.4534 206.038,18.1201 206.5,19.5 Z"/></g>
<g><path style="opacity:1" fill="#f7fafc" d="M 204.5,19.5 C 203.848,20.7251 202.681,21.3917 201,21.5C 199.833,21.1667 198.667,20.8333 197.5,20.5C 197.957,19.7025 198.624,19.3691 199.5,19.5C 201.398,18.9035 203.065,18.9035 204.5,19.5 Z"/></g>
<g><path style="opacity:1" fill="#eff5f9" d="M 219.5,22.5 C 220.803,25.3553 220.803,28.3553 219.5,31.5C 218.167,32.1667 216.833,32.8333 215.5,33.5C 214.417,32.635 214.251,31.635 215,30.5C 216.765,27.9679 218.265,25.3013 219.5,22.5 Z"/></g>
<g><path style="opacity:1" fill="#b2d0e1" d="M 40.5,34.5 C 44.0826,35.7968 47.4159,37.4634 50.5,39.5C 50.44,40.0431 50.1067,40.3764 49.5,40.5C 45.3499,38.9239 41.3499,37.0905 37.5,35C 38.448,34.5172 39.448,34.3505 40.5,34.5 Z"/></g>
<g><path style="opacity:1" fill="#9bc3d9" d="M 228.5,48.5 C 229.152,49.4486 229.486,50.6153 229.5,52C 229.392,53.6811 228.725,54.8478 227.5,55.5C 228.369,53.283 228.702,50.9496 228.5,48.5 Z"/></g>
</svg>
